<?xml version="1.0" encoding="UTF-8"?>
<svg width="1366px" height="1366px" viewBox="0 0 1366 1366" version="1.1" xmlns="http://www.w3.org/2000/svg" xmlns:xlink="http://www.w3.org/1999/xlink">
    <title>Artboard</title>
    <g id="Artboard" stroke="none" stroke-width="1" fill="none" fill-rule="evenodd">
        <g id="Group" transform="translate(173.946547, 209.585876)">
            <path d="M209.880814,83.0890179 L209.880814,372.993866 L455.037563,372.993866 L455.037563,83.0890179 L667.506549,83.0890179 L787.213632,83.4141235 L787.214791,83.9284257 C916.055911,92.4161256 1018.05345,204.899697 1018.05345,342.414124 C1018.05345,479.92855 916.055911,592.412121 787.214791,600.899821 L787.213632,601.414124 L667.506549,604.543194 L667.506549,863.141276 L455.037563,863.141276 L455.037563,545.839417 L209.880814,545.839417 L209.880814,863.141276 L-4.54747351e-13,863.141276 L-4.54747351e-13,83.0890179 L209.880814,83.0890179 Z M726.553453,253.414124 C725.25087,253.414124 723.969369,253.459221 722.708995,253.548259 L722.708995,253.548259 L667.516724,253.550292 L667.516724,433.123202 L720.938082,433.124627 C722.764089,433.316395 724.63593,433.414124 726.553453,433.414124 C765.489528,433.414124 808.12391,393.042374 808.12391,343.336747 C808.12391,293.631119 765.489528,253.414124 726.553453,253.414124 Z" id="Combined-Shape" fill="#FFFFFF"></path>
            <polygon id="Path-2" fill="#EE3893" points="922.30321 -2.84217094e-14 922.30321 113.561405 802.087302 113.561405 802.087302 199.842799 922.30321 199.842799 922.30321 315.074613 1007.59261 315.074613 1007.59261 199.842799 1124.48981 199.842799 1124.48981 113.561405 1007.59261 113.561405 1007.59261 -2.84217094e-14"></polygon>
        </g>
    </g>
</svg>